<svg class="femaleicon" version="1.1" viewBox="0 0 24 24" width="24" height="24" aria-hidden="true"><title>female</title>
<path fill-rule="evenodd" style="stroke:currentColor;stroke-width:0.55;stroke-linejoin:round;" d="M11.5,15.9c-1.9-0.2-3.4-1-4.6-2.4c-1.2-1.4-1.8-2.9-1.8-4.7c0-2,0.7-3.7,2.1-5.1
	c1.4-1.4,3.1-2.1,5.1-2.1c2,0,3.7,0.7,5.1,2.1c1.4,1.4,2.1,3.1,2.1,5.1c0,1.8-0.6,3.3-1.8,4.7c-1.2,1.4-2.7,2.2-4.6,2.4v2.7h2.7v1.6
	h-2.7v2.7h-1.6v-2.7H8.9v-1.6h2.6L11.5,15.9z M12.3,14.3c1.5,0,2.8-0.5,3.9-1.6c1.1-1.1,1.6-2.4,1.6-3.9c0-1.5-0.5-2.9-1.6-3.9
	c-1.1-1.1-2.4-1.6-3.9-1.6c-1.5,0-2.9,0.5-3.9,1.6C7.3,5.9,6.8,7.2,6.8,8.7c0,1.5,0.5,2.9,1.6,3.9C9.5,13.8,10.8,14.3,12.3,14.3z"/>
</svg>
