<svg class="maleicon" version="1.1" viewBox="0 0 24 24" width="24" height="24" aria-hidden="true">
<path fill-rule="evenodd" style="stroke:currentColor;stroke-width:0.55;stroke-linejoin:round;" d="M20.7,8.4h-1.6V6.2l-2.9,2.9c1.1,1.3,1.6,2.8,1.6,4.5c0,2-0.7,3.7-2.1,5.1
	c-1.4,1.4-3.1,2.1-5.1,2.1s-3.7-0.7-5.2-2.1c-1.4-1.4-2.1-3.1-2.1-5.1S4,9.9,5.4,8.5s3.1-2.1,5.1-2.1c1.7,0,3.2,0.5,4.5,1.6l2.9-2.9
	h-2.2V3.4h4.9L20.7,8.4z M10.5,19.2c1.5,0,2.8-0.6,3.9-1.7s1.7-2.4,1.7-4s-0.6-2.8-1.7-3.9s-2.4-1.7-4-1.7c-1.5,0-2.8,0.6-3.9,1.7
	S4.8,12,4.8,13.5c0,1.6,0.5,2.8,1.7,4S9,19.2,10.5,19.2z"/>
</svg>
