<svg id="SGW-Favicon" xmlns="http://www.w3.org/2000/svg" viewBox="0 0 24 24"><defs><style>.cls-1{fill:#fff;stroke:#fff;stroke-miterlimit:10;}.cls-2{opacity:0.95;}.cls-3{fill:#d4e0f0;}.cls-4{fill:#ddebff;}.cls-5{fill:#aac1e0;}</style></defs><title>SGW Icon</title><path class="cls-1" d="M3.69,12.82a3.08,3.08,0,0,1-1.63-.4,2.55,2.55,0,0,1-1-1.22A5.89,5.89,0,0,1,.65,9.13L2.5,8.77A7.36,7.36,0,0,0,2.64,10a1.64,1.64,0,0,0,.34.73.74.74,0,0,0,.57.24.58.58,0,0,0,.57-.29A1.32,1.32,0,0,0,4.27,10,2.32,2.32,0,0,0,4,8.75a5.9,5.9,0,0,0-.85-1L2,6.66A4.93,4.93,0,0,1,1,5.41,3.72,3.72,0,0,1,.68,3.68a3.07,3.07,0,0,1,.75-2.2A2.83,2.83,0,0,1,3.53.64,2.68,2.68,0,0,1,4.84.93a2.22,2.22,0,0,1,.82.79,3.61,3.61,0,0,1,.39,1.07,8.66,8.66,0,0,1,.14,1.14l-1.87.32a3.2,3.2,0,0,0-.09-1A1.16,1.16,0,0,0,4,2.65a.58.58,0,0,0-.52-.22.62.62,0,0,0-.57.32,1.3,1.3,0,0,0-.2.64,1.86,1.86,0,0,0,.25,1,5.17,5.17,0,0,0,.73.88l1.06,1A6.84,6.84,0,0,1,5.9,7.83a4,4,0,0,1,.47,2A3.29,3.29,0,0,1,6,11.38a2.54,2.54,0,0,1-1,1A2.56,2.56,0,0,1,3.69,12.82Z"/><path class="cls-1" d="M10.22,12.84a2.65,2.65,0,0,1-1.7-.51,2.92,2.92,0,0,1-.9-1.44,8,8,0,0,1-.27-2.17v-4a8.09,8.09,0,0,1,.27-2.2,2.58,2.58,0,0,1,1-1.42,3.16,3.16,0,0,1,1.87-.5,3.42,3.42,0,0,1,1.8.42,2.48,2.48,0,0,1,1,1.21,5.52,5.52,0,0,1,.26,1.85V4.8H11.38V4a4.52,4.52,0,0,0-.05-.82.89.89,0,0,0-.24-.56.75.75,0,0,0-.6-.21.73.73,0,0,0-.63.24,1.38,1.38,0,0,0-.26.64q0,.42,0,.84V9.35a5.45,5.45,0,0,0,.08.89,1.24,1.24,0,0,0,.3.62.87.87,0,0,0,.59.18.84.84,0,0,0,.62-.24,1.14,1.14,0,0,0,.31-.64,4.24,4.24,0,0,0,.05-.87V8h-1V6.56h2.94v6.09h-1.4L12,11.58a2,2,0,0,1-.63.9A1.71,1.71,0,0,1,10.22,12.84Z"/><path class="cls-1" d="M15.93,12.65,14.55.79h1.83L17.12,8,18,.8h1.45l1,7.23L21.19.79H23L21.64,12.65H19.81l-1-7.51-1,7.51Z"/><path d="M3.69,12.82a3.08,3.08,0,0,1-1.63-.4,2.55,2.55,0,0,1-1-1.22A5.89,5.89,0,0,1,.65,9.13L2.5,8.77A7.36,7.36,0,0,0,2.64,10a1.64,1.64,0,0,0,.34.73.74.74,0,0,0,.57.24.58.58,0,0,0,.57-.29A1.32,1.32,0,0,0,4.27,10,2.32,2.32,0,0,0,4,8.75a5.9,5.9,0,0,0-.85-1L2,6.66A4.93,4.93,0,0,1,1,5.41,3.72,3.72,0,0,1,.68,3.68a3.07,3.07,0,0,1,.75-2.2A2.83,2.83,0,0,1,3.53.64,2.68,2.68,0,0,1,4.84.93a2.22,2.22,0,0,1,.82.79,3.61,3.61,0,0,1,.39,1.07,8.66,8.66,0,0,1,.14,1.14l-1.87.32a3.2,3.2,0,0,0-.09-1A1.16,1.16,0,0,0,4,2.65a.58.58,0,0,0-.52-.22.62.62,0,0,0-.57.32,1.3,1.3,0,0,0-.2.64,1.86,1.86,0,0,0,.25,1,5.17,5.17,0,0,0,.73.88l1.06,1A6.84,6.84,0,0,1,5.9,7.83a4,4,0,0,1,.47,2A3.29,3.29,0,0,1,6,11.38a2.54,2.54,0,0,1-1,1A2.56,2.56,0,0,1,3.69,12.82Z"/><path d="M10.22,12.84a2.65,2.65,0,0,1-1.7-.51,2.92,2.92,0,0,1-.9-1.44,8,8,0,0,1-.27-2.17v-4a8.09,8.09,0,0,1,.27-2.2,2.58,2.58,0,0,1,1-1.42,3.16,3.16,0,0,1,1.87-.5,3.42,3.42,0,0,1,1.8.42,2.48,2.48,0,0,1,1,1.21,5.52,5.52,0,0,1,.26,1.85V4.8H11.38V4a4.52,4.52,0,0,0-.05-.82.89.89,0,0,0-.24-.56.75.75,0,0,0-.6-.21.73.73,0,0,0-.63.24,1.38,1.38,0,0,0-.26.64q0,.42,0,.84V9.35a5.45,5.45,0,0,0,.08.89,1.24,1.24,0,0,0,.3.62.87.87,0,0,0,.59.18.84.84,0,0,0,.62-.24,1.14,1.14,0,0,0,.31-.64,4.24,4.24,0,0,0,.05-.87V8h-1V6.56h2.94v6.09h-1.4L12,11.58a2,2,0,0,1-.63.9A1.71,1.71,0,0,1,10.22,12.84Z"/><path d="M15.93,12.65,14.55.79h1.83L17.12,8,18,.8h1.45l1,7.23L21.19.79H23L21.64,12.65H19.81l-1-7.51-1,7.51Z"/><g class="cls-2"><polygon class="cls-3" points="12 24 19.27 19.8 19.27 11.4 12 15.6 12 24"/><polygon class="cls-4" points="4.73 11.4 12 7.21 19.27 11.4 12 15.6 4.73 11.4"/><polygon class="cls-5" points="4.73 11.4 4.73 19.8 12 24 12 15.6 4.73 11.4"/></g></svg>